PathFileType	4	(X/Y/Z)	E:/Microgravity/Neeraj_13_07_24_t02 _without_weight_pp.trc	
DataRate	CameraRate	NumFrames	NumMarkers	Units	OrigDataRate	OrigDataStartFrame	OrigNumFrames	
120.00	120.00	66	5	m	120.00	6176	7058	
Frame#	Time	RHAND			r_radius_styloid			RWRB			r_humerus_epicondyle			r_acromion			
		X1	Y1	Z1	X2	Y2	Z2	X3	Y3	Z3	X4	Y4	Z4	X5	Y5	Z5	

6176	51.458	0.10953	0.80860	0.28621	0.08225	0.91006	0.32469	0.02521	0.87203	0.24995	0.00873	1.13815	0.28113	-0.00683	1.51796	0.19122 
6177	51.467	0.10953	0.80857	0.28622	0.08226	0.91004	0.32469	0.02524	0.87198	0.24994	0.00877	1.13814	0.28113	-0.00679	1.51795	0.19122 
6178	51.475	0.10953	0.80854	0.28623	0.08227	0.91002	0.32470	0.02528	0.87194	0.24994	0.00881	1.13812	0.28112	-0.00674	1.51794	0.19122 
6179	51.483	0.10954	0.80851	0.28623	0.08229	0.90999	0.32469	0.02530	0.87190	0.24993	0.00886	1.13810	0.28112	-0.00669	1.51793	0.19122 
6180	51.492	0.10955	0.80848	0.28622	0.08231	0.90996	0.32469	0.02533	0.87186	0.24993	0.00891	1.13809	0.28112	-0.00665	1.51792	0.19121 
6181	51.500	0.10956	0.80845	0.28622	0.08232	0.90993	0.32468	0.02535	0.87183	0.24992	0.00896	1.13807	0.28111	-0.00660	1.51790	0.19121 
6182	51.508	0.10956	0.80842	0.28621	0.08234	0.90990	0.32467	0.02537	0.87180	0.24991	0.00901	1.13805	0.28110	-0.00656	1.51787	0.19120 
6183	51.517	0.10956	0.80838	0.28620	0.08236	0.90986	0.32466	0.02538	0.87177	0.24989	0.00906	1.13803	0.28109	-0.00651	1.51786	0.19120 
6184	51.525	0.10955	0.80834	0.28619	0.08237	0.90983	0.32464	0.02539	0.87175	0.24987	0.00912	1.13802	0.28108	-0.00646	1.51785	0.19120 
6185	51.533	0.10953	0.80830	0.28618	0.08238	0.90980	0.32463	0.02539	0.87172	0.24986	0.00917	1.13800	0.28107	-0.00640	1.51784	0.19121 
6186	51.542	0.10952	0.80825	0.28616	0.08239	0.90976	0.32461	0.02540	0.87169	0.24984	0.00923	1.13798	0.28105	-0.00634	1.51783	0.19121 
6187	51.550	0.10950	0.80821	0.28614	0.08239	0.90973	0.32459	0.02541	0.87167	0.24981	0.00928	1.13796	0.28103	-0.00629	1.51783	0.19121 
6188	51.558	0.10948	0.80817	0.28613	0.08240	0.90969	0.32457	0.02541	0.87164	0.24979	0.00933	1.13794	0.28101	-0.00624	1.51781	0.19121 
6189	51.567	0.10946	0.80813	0.28611	0.08240	0.90965	0.32455	0.02541	0.87161	0.24977	0.00938	1.13792	0.28098	-0.00619	1.51780	0.19121 
6190	51.575	0.10944	0.80810	0.28609	0.08240	0.90962	0.32453	0.02541	0.87159	0.24974	0.00942	1.13790	0.28096	-0.00613	1.51779	0.19121 
6191	51.583	0.10942	0.80806	0.28607	0.08240	0.90959	0.32450	0.02541	0.87156	0.24972	0.00946	1.13788	0.28093	-0.00608	1.51777	0.19120 
6192	51.592	0.10939	0.80803	0.28604	0.08239	0.90955	0.32447	0.02541	0.87154	0.24969	0.00949	1.13786	0.28091	-0.00603	1.51775	0.19120 
6193	51.600	0.10937	0.80799	0.28600	0.08239	0.90952	0.32444	0.02541	0.87152	0.24967	0.00953	1.13785	0.28088	-0.00598	1.51773	0.19119 
6194	51.608	0.10935	0.80796	0.28596	0.08239	0.90948	0.32440	0.02540	0.87150	0.24964	0.00956	1.13783	0.28085	-0.00594	1.51772	0.19118 
6195	51.617	0.10932	0.80792	0.28592	0.08238	0.90945	0.32436	0.02539	0.87148	0.24961	0.00959	1.13781	0.28083	-0.00589	1.51771	0.19117 
6196	51.625	0.10930	0.80789	0.28587	0.08238	0.90942	0.32432	0.02537	0.87147	0.24958	0.00962	1.13780	0.28080	-0.00584	1.51771	0.19117 
6197	51.633	0.10927	0.80785	0.28582	0.08237	0.90939	0.32428	0.02534	0.87147	0.24954	0.00964	1.13778	0.28077	-0.00580	1.51770	0.19116 
6198	51.642	0.10925	0.80782	0.28577	0.08236	0.90936	0.32423	0.02531	0.87147	0.24949	0.00966	1.13776	0.28074	-0.00576	1.51769	0.19116 
6199	51.650	0.10922	0.80778	0.28573	0.08235	0.90933	0.32419	0.02529	0.87147	0.24945	0.00967	1.13775	0.28071	-0.00571	1.51768	0.19115 
6200	51.658	0.10920	0.80776	0.28569	0.08234	0.90931	0.32415	0.02526	0.87147	0.24940	0.00968	1.13773	0.28068	-0.00567	1.51768	0.19115 
6201	51.667	0.10918	0.80773	0.28565	0.08232	0.90928	0.32411	0.02524	0.87147	0.24935	0.00969	1.13771	0.28065	-0.00563	1.51767	0.19114 
6202	51.675	0.10917	0.80772	0.28561	0.08231	0.90926	0.32408	0.02521	0.87146	0.24931	0.00970	1.13769	0.28062	-0.00559	1.51766	0.19114 
6203	51.683	0.10914	0.80769	0.28557	0.08229	0.90924	0.32404	0.02518	0.87146	0.24926	0.00970	1.13768	0.28059	-0.00555	1.51766	0.19114 
6204	51.692	0.10912	0.80767	0.28553	0.08227	0.90922	0.32400	0.02515	0.87145	0.24922	0.00971	1.13766	0.28056	-0.00551	1.51766	0.19114 
6205	51.700	0.10909	0.80765	0.28550	0.08225	0.90919	0.32397	0.02512	0.87143	0.24918	0.00971	1.13765	0.28052	-0.00547	1.51765	0.19113 
6206	51.708	0.10905	0.80762	0.28547	0.08222	0.90917	0.32394	0.02509	0.87141	0.24914	0.00972	1.13763	0.28049	-0.00543	1.51766	0.19113 
6207	51.717	0.10901	0.80759	0.28544	0.08219	0.90914	0.32391	0.02506	0.87139	0.24910	0.00972	1.13762	0.28046	-0.00539	1.51766	0.19113 
6208	51.725	0.10896	0.80756	0.28541	0.08216	0.90911	0.32388	0.02504	0.87137	0.24907	0.00973	1.13760	0.28044	-0.00535	1.51767	0.19114 
6209	51.733	0.10890	0.80754	0.28538	0.08212	0.90909	0.32385	0.02500	0.87135	0.24904	0.00973	1.13759	0.28041	-0.00531	1.51767	0.19114 
6210	51.742	0.10885	0.80751	0.28536	0.08209	0.90906	0.32383	0.02497	0.87133	0.24900	0.00973	1.13758	0.28038	-0.00528	1.51767	0.19113 
6211	51.750	0.10879	0.80748	0.28534	0.08204	0.90904	0.32380	0.02493	0.87131	0.24897	0.00972	1.13757	0.28036	-0.00525	1.51766	0.19113 
6212	51.758	0.10872	0.80745	0.28531	0.08200	0.90901	0.32378	0.02489	0.87128	0.24893	0.00972	1.13756	0.28033	-0.00522	1.51766	0.19112 
6213	51.767	0.10865	0.80742	0.28529	0.08195	0.90899	0.32376	0.02484	0.87126	0.24890	0.00971	1.13754	0.28031	-0.00519	1.51766	0.19111 
6214	51.775	0.10859	0.80739	0.28527	0.08190	0.90897	0.32373	0.02480	0.87124	0.24887	0.00970	1.13753	0.28029	-0.00517	1.51766	0.19110 
6215	51.783	0.10852	0.80737	0.28525	0.08185	0.90895	0.32371	0.02476	0.87120	0.24884	0.00969	1.13752	0.28026	-0.00514	1.51765	0.19109 
6216	51.792	0.10845	0.80734	0.28523	0.08179	0.90892	0.32370	0.02473	0.87117	0.24881	0.00967	1.13751	0.28024	-0.00511	1.51765	0.19109 
6217	51.800	0.10838	0.80732	0.28521	0.08173	0.90890	0.32368	0.02470	0.87112	0.24879	0.00966	1.13751	0.28022	-0.00507	1.51764	0.19108 
6218	51.808	0.10832	0.80730	0.28520	0.08167	0.90888	0.32366	0.02468	0.87108	0.24877	0.00964	1.13750	0.28020	-0.00504	1.51764	0.19107 
6219	51.817	0.10825	0.80727	0.28518	0.08161	0.90885	0.32365	0.02465	0.87103	0.24874	0.00962	1.13749	0.28018	-0.00501	1.51763	0.19106 
6220	51.825	0.10818	0.80725	0.28517	0.08155	0.90883	0.32363	0.02463	0.87098	0.24872	0.00960	1.13748	0.28016	-0.00498	1.51762	0.19105 
6221	51.833	0.10811	0.80722	0.28516	0.08149	0.90880	0.32361	0.02461	0.87094	0.24870	0.00957	1.13747	0.28014	-0.00495	1.51762	0.19104 
6222	51.842	0.10805	0.80720	0.28514	0.08143	0.90878	0.32360	0.02458	0.87089	0.24868	0.00955	1.13746	0.28012	-0.00492	1.51762	0.19103 
6223	51.850	0.10798	0.80718	0.28513	0.08137	0.90875	0.32358	0.02455	0.87085	0.24865	0.00953	1.13745	0.28011	-0.00490	1.51761	0.19102 
6224	51.858	0.10791	0.80716	0.28512	0.08131	0.90873	0.32356	0.02453	0.87081	0.24863	0.00951	1.13744	0.28009	-0.00488	1.51761	0.19102 
6225	51.867	0.10785	0.80714	0.28511	0.08125	0.90870	0.32355	0.02450	0.87077	0.24862	0.00948	1.13743	0.28007	-0.00486	1.51760	0.19101 
6226	51.875	0.10779	0.80712	0.28510	0.08119	0.90868	0.32353	0.02448	0.87074	0.24861	0.00946	1.13742	0.28006	-0.00485	1.51760	0.19100 
6227	51.883	0.10773	0.80710	0.28509	0.08114	0.90866	0.32352	0.02446	0.87071	0.24859	0.00943	1.13741	0.28004	-0.00483	1.51759	0.19100 
6228	51.892	0.10768	0.80708	0.28508	0.08108	0.90865	0.32351	0.02445	0.87068	0.24858	0.00940	1.13740	0.28002	-0.00482	1.51758	0.19100 
6229	51.900	0.10763	0.80707	0.28507	0.08103	0.90864	0.32349	0.02444	0.87064	0.24857	0.00937	1.13739	0.28001	-0.00481	1.51757	0.19099 
6230	51.908	0.10758	0.80706	0.28507	0.08098	0.90863	0.32348	0.02443	0.87061	0.24855	0.00934	1.13738	0.27999	-0.00480	1.51756	0.19098 
6231	51.917	0.10754	0.80705	0.28506	0.08093	0.90861	0.32347	0.02442	0.87059	0.24853	0.00930	1.13737	0.27998	-0.00480	1.51756	0.19097 
6232	51.925	0.10750	0.80704	0.28505	0.08087	0.90860	0.32346	0.02441	0.87057	0.24851	0.00927	1.13736	0.27996	-0.00480	1.51755	0.19096 
6233	51.933	0.10746	0.80704	0.28504	0.08082	0.90859	0.32344	0.02439	0.87054	0.24849	0.00924	1.13736	0.27995	-0.00480	1.51755	0.19095 
6234	51.942	0.10743	0.80703	0.28504	0.08077	0.90858	0.32343	0.02438	0.87052	0.24846	0.00921	1.13735	0.27993	-0.00480	1.51755	0.19094 
6235	51.950	0.10739	0.80702	0.28503	0.08072	0.90857	0.32342	0.02437	0.87050	0.24844	0.00918	1.13735	0.27991	-0.00480	1.51755	0.19093 
6236	51.958	0.10735	0.80702	0.28503	0.08067	0.90857	0.32340	0.02437	0.87048	0.24842	0.00915	1.13735	0.27989	-0.00480	1.51754	0.19092 
6237	51.967	0.10732	0.80702	0.28502	0.08063	0.90856	0.32339	0.02437	0.87046	0.24840	0.00911	1.13735	0.27988	-0.00481	1.51754	0.19091 
6238	51.975	0.10729	0.80702	0.28501	0.08059	0.90856	0.32338	0.02440	0.87042	0.24838	0.00908	1.13735	0.27986	-0.00483	1.51754	0.19090 
6239	51.983	0.10727	0.80702	0.28500	0.08055	0.90856	0.32337	0.02444	0.87038	0.24836	0.00905	1.13736	0.27984	-0.00484	1.51754	0.19090 
6240	51.992	0.10726	0.80703	0.28500	0.08052	0.90855	0.32336	0.02450	0.87031	0.24835	0.00903	1.13736	0.27983	-0.00485	1.51755	0.19089 
6241	52.000	0.10724	0.80703	0.28499	0.08049	0.90855	0.32335	0.02456	0.87026	0.24834	0.00900	1.13737	0.27982	-0.00487	1.51755	0.19089 
